<?xml version="1.0" encoding="UTF-8"?>
<svg id="a" data-name="Layer_1" xmlns="http://www.w3.org/2000/svg" xmlns:xlink="http://www.w3.org/1999/xlink" viewBox="0 0 1920 640">
  <defs>
    <style>
      .g {
        fill: none;
      }

      .h, .i, .j, .k, .l, .m, .n {
        font-size: 123px;
      }

      .h, .o, .j, .p, .q, .l, .r, .s, .t, .u, .n {
        font-family: STIXGeneral-Italic, STIXGeneral;
        font-style: italic;
      }

      .h, .r {
        fill: #63c89c;
      }

      .v {
        letter-spacing: 0em;
      }

      .i {
        font-family: STIXVariants-Regular, STIXVariants;
      }

      .o, .p {
        font-size: 74px;
      }

      .o, .q, .l, .s {
        fill: #d66a49;
      }

      .w, .x, .y, .p, .t, .n {
        fill: #46439a;
      }

      .w, .x, .y, .m {
        font-family: STIXGeneral-Regular, STIXGeneral;
      }

      .w, .q, .r, .t, .u {
        font-size: 87.33px;
      }

      .x, .s {
        font-size: 52.54px;
      }

      .y {
        font-size: 62px;
      }

      .z {
        font-family: HelveticaNeue-Medium, 'Helvetica Neue';
        font-size: 61px;
        font-weight: 500;
      }

      .k {
        font-family: STIXSizeOneSym-Regular, STIXSizeOneSym;
      }

      .aa {
        fill: #fff;
      }

      .ab {
        clip-path: url(#e);
      }

      .ac {
        clip-path: url(#d);
      }

      .ad {
        clip-path: url(#f);
      }

      .ae {
        clip-path: url(#c);
      }

      .af {
        clip-path: url(#b);
      }

      .ag {
        letter-spacing: -.02em;
      }
    </style>
    <clipPath id="b">
      <rect class="g" width="1920" height="640"/>
    </clipPath>
    <clipPath id="c">
      <rect class="g" x="545.61" y="49" width="453.73" height="110.36"/>
    </clipPath>
    <clipPath id="d">
      <rect class="g" x="854.85" y="89.7" width="49.81" height="53.71"/>
    </clipPath>
    <clipPath id="e">
      <rect class="g" x="997.34" y="89.62" width="59.26" height="53.87"/>
    </clipPath>
    <clipPath id="f">
      <rect class="g" width="1920" height="640"/>
    </clipPath>
  </defs>
  <g class="af">
    <path class="aa" d="M115.48,25.58h1689.05c33.47,0,53.55,0,66.94,5.59,19.3,7.02,34.5,22.23,41.53,41.53,5.59,13.39,5.59,33.47,5.59,66.94v360.71c0,33.47,0,53.55-5.59,66.94-7.03,19.3-22.23,34.5-41.53,41.53-13.39,5.59-33.47,5.59-66.94,5.59H115.48c-33.47,0-53.55,0-66.94-5.59-19.3-7.02-34.5-22.23-41.53-41.53-5.59-13.39-5.59-33.47-5.59-66.94V139.64c0-33.47,0-53.55,5.59-66.94,7.02-19.3,22.23-34.5,41.53-41.53,13.39-5.59,33.47-5.59,66.94-5.59Z"/>
    <text class="j" transform="translate(54.87 334.6)"><tspan x="0" y="0">u</tspan></text>
    <text class="u" transform="translate(112.05 365.35)"><tspan x="0" y="0">t</tspan></text>
    <text class="m" transform="translate(136.33 334.6)"><tspan x="0" y="0">(</tspan></text>
    <text class="l" transform="translate(177.29 334.6)"><tspan x="0" y="0">x</tspan></text>
    <text class="q" transform="translate(227.58 365.35)"><tspan x="0" y="0">t</tspan></text>
    <text class="m" transform="translate(251.85 334.6)"><tspan x="0" y="0">)</tspan></text>
    <text class="m" transform="translate(326.98 334.6)"><tspan x="0" y="0">=</tspan></text>
    <text class="k" transform="translate(445.4 398.69)"><tspan x="0" y="0">∑</tspan></text>
    <text class="t" transform="translate(491.5 484.91)"><tspan x="0" y="0">x</tspan></text>
    <text class="y" transform="translate(527.21 506.74)"><tspan x="0" y="0">0</tspan></text>
    <text class="j" transform="translate(624.82 334.6)"><tspan x="0" y="0">u</tspan></text>
    <text class="u" transform="translate(682 365.35)"><tspan x="0" y="0">t</tspan></text>
    <text class="m" transform="translate(706.27 334.6)"><tspan x="0" y="0">(</tspan></text>
    <text class="l" transform="translate(747.23 334.6)"><tspan x="0" y="0">x</tspan></text>
    <text class="q" transform="translate(797.52 365.35)"><tspan x="0" y="0">t</tspan></text>
    <text class="i" transform="translate(835.47 334.3)"><tspan x="0" y="0">|</tspan></text>
    <text class="n" transform="translate(888.49 334.6)"><tspan x="0" y="0">x</tspan></text>
    <text class="w" transform="translate(938.78 365.35)"><tspan x="0" y="0">0</tspan></text>
    <text class="m" transform="translate(982.45 334.6)"><tspan x="0" y="0">)</tspan></text>
    <text class="h" transform="translate(1069.9 243.1)"><tspan x="0" y="0">p</tspan></text>
    <text class="r" transform="translate(1127.57 273.85)"><tspan x="0" y="0">t</tspan></text>
    <text class="m" transform="translate(1151.85 243.1)"><tspan x="0" y="0">(</tspan></text>
    <text class="l" transform="translate(1192.81 243.1)"><tspan x="0" y="0">x</tspan></text>
    <text class="q" transform="translate(1243.1 273.85)"><tspan x="0" y="0">t</tspan></text>
    <text class="i" transform="translate(1281.04 242.79)"><tspan x="0" y="0">|</tspan></text>
    <text class="n" transform="translate(1334.07 243.1)"><tspan x="0" y="0">x</tspan></text>
    <text class="w" transform="translate(1384.36 273.85)"><tspan x="0" y="0">0</tspan></text>
    <text class="m" transform="translate(1428.03 243.1)"><tspan x="0" y="0">)</tspan></text>
    <rect x="1057.6" y="299.42" width="423.68" height="8.12"/>
    <text class="h" transform="translate(1149.71 426.85)"><tspan x="0" y="0">p</tspan></text>
    <text class="r" transform="translate(1207.9 453.91)"><tspan x="0" y="0">t</tspan></text>
    <text class="m" transform="translate(1232.17 426.85)"><tspan x="0" y="0">(</tspan></text>
    <text class="l" transform="translate(1273.13 426.85)"><tspan x="0" y="0">x</tspan></text>
    <text class="q" transform="translate(1323.94 453.91)"><tspan x="0" y="0">t</tspan></text>
    <text class="m" transform="translate(1348.22 426.85)"><tspan x="0" y="0">)</tspan></text>
    <text class="j" transform="translate(1521.63 334.6)"><tspan x="0" y="0">q</tspan></text>
    <text class="m" transform="translate(1583.13 334.6)"><tspan x="0" y="0">(</tspan></text>
    <text class="n" transform="translate(1624.09 334.6)"><tspan x="0" y="0">x</tspan></text>
    <text class="w" transform="translate(1674.38 365.35)"><tspan x="0" y="0">0</tspan></text>
    <text class="m" transform="translate(1718.04 334.6)"><tspan x="0" y="0">)</tspan></text>
    <text class="j" transform="translate(1759 334.6)"><tspan x="0" y="0">d</tspan></text>
    <text class="n" transform="translate(1820.5 334.6)"><tspan x="0" y="0">x</tspan></text>
    <text class="w" transform="translate(1870.79 365.35)"><tspan x="0" y="0">0</tspan></text>
    <text class="z" transform="translate(1096.63 560.21)"><tspan x="0" y="0">Path </tspan><tspan class="ag" x="146.89" y="0">W</tspan><tspan x="203.43" y="0">eight</tspan></text>
  </g>
  <g class="ae">
    <text class="z" transform="translate(563.98 126.17)"><tspan x="0" y="0">Path f</tspan><tspan class="ag" x="166.1" y="0">r</tspan><tspan class="v" x="186.54" y="0" xml:space="preserve">om     to</tspan></text>
  </g>
  <g class="ac">
    <text class="o" transform="translate(857.84 123.33)"><tspan x="0" y="0">x</tspan></text>
    <text class="s" transform="translate(888.1 141.83)"><tspan x="0" y="0">t</tspan></text>
  </g>
  <g class="ab">
    <text class="p" transform="translate(1000.34 123.25)"><tspan x="0" y="0">x</tspan></text>
    <text class="x" transform="translate(1030.6 141.75)"><tspan x="0" y="0">0</tspan></text>
  </g>
  <g class="ad">
    <text class="z" transform="translate(22.68 560.21)"><tspan x="0" y="0">Marginal Flow</tspan></text>
  </g>
</svg>